#!OML:ASF F:\VICON\USERDATA\INSTALL\rory3\rory3.ASF
:FULLY-SPECIFIED
:DEGREES
316
root -2.04853 17.6455 9.37601 -3.44099 -4.38832 4.28914
lowerback 12.7136 2.45237 0.923175
upperback 0.609996 3.38745 0.00231388
thorax -6.43093 1.62891 -1.12647
lowerneck -24.1885 5.00937 -6.96889
upperneck 33.2043 9.92848 1.76169
head 15.241 3.54841 3.86278
rclavicle -1.3418e-015 1.43125e-014
rhumerus -35.8157 -19.9955 -69.4632
rradius 29.7406
rwrist 5.31727
rhand -17.4621 8.6504
rfingers 7.12502
rthumb 8.78939 -21.1466
lclavicle -1.3418e-015 1.43125e-014
lhumerus -38.6556 30.1606 69.6259
lradius 26.4098
lwrist -10.0679
lhand -18.746 22.6507
lfingers 7.12502
lthumb 7.55031 52.4959
rfemur 0.877946 -0.669842 4.53885
rtibia 29.0665
rfoot -11.811 -21.2954
rtoes -3.07966
lfemur -1.8358 -3.08094 -11.4649
ltibia 7.90173
lfoot 0.744846 -1.22975
ltoes -22.1014
317
root -1.92164 17.6516 9.42169 -3.24999 -3.8213 4.65154
lowerback 12.7058 2.42124 0.741911
upperback 0.510164 3.314 -0.104666
thorax -6.53806 1.59533 -1.127
lowerneck -24.2023 4.99647 -6.92408
upperneck 33.2324 9.92609 1.68616
head 15.2671 3.54002 3.82694
rclavicle -2.8625e-014 7.95139e-016
rhumerus -36.2515 -20.4379 -69.0766
rradius 29.7256
rwrist 4.55197
rhand -17.9734 9.21777
rfingers 7.12502
rthumb 8.29601 -20.5993
lclavicle -2.8625e-014 7.95139e-016
lhumerus -38.4867 30.4288 69.6954
lradius 26.3459
lwrist -10.0992
lhand -18.6893 22.7711
lfingers 7.12502
lthumb 7.60508 52.6144
rfemur 0.980965 -0.75542 3.79608
rtibia 28.9417
rfoot -11.1933 -21.8385
rtoes -3.10734
lfemur -2.60601 -3.01879 -12.3882
ltibia 8.90149
lfoot 0.0981937 -1.89724
ltoes -22.6933
318
root -1.7912 17.6625 9.46461 -3.0694 -3.25891 5.0295
lowerback 12.7496 2.40545 0.592456
upperback 0.410419 3.26426 -0.227246
thorax -6.67075 1.57193 -1.16851
lowerneck -24.2901 4.99203 -6.87347
upperneck 33.3677 9.93431 1.65474
head 15.3561 3.53571 3.81972
rclavicle -2.16675e-014 -5.56597e-015
rhumerus -36.6437 -20.9187 -68.7206
rradius 29.5969
rwrist 3.50383
rhand -18.6411 10.2383
rfingers 7.12502
rthumb 7.65155 -19.6033
lclavicle -2.16675e-014 -5.56597e-015
lhumerus -38.2799 30.3646 69.9573
lradius 26.3741
lwrist -9.80132
lhand -18.6798 23.0835
lfingers 7.12502
lthumb 7.61424 52.9264
rfemur 1.12793 -0.808643 3.00367
rtibia 28.7804
rfoot -10.2597 -22.492
rtoes -3.28224
lfemur -3.45778 -2.96888 -13.3048
ltibia 10.0207
lfoot -0.466268 -2.52636
ltoes -21.676
319
root -1.6619 17.6734 9.51001 -3.01436 -2.69952 5.41034
lowerback 12.7676 2.3687 0.431287
upperback 0.43552 3.18511 -0.32801
thorax -6.65864 1.537 -1.16995
lowerneck -24.4068 4.99867 -6.90092
upperneck 33.4487 10.0095 1.5738
head 15.4224 3.54425 3.81503
rclavicle -2.28105e-014 8.74653e-015
rhumerus -36.9099 -21.3241 -68.4033
rradius 29.4904
rwrist 2.96439
rhand -19.1347 11.1256
rfingers 7.12502
rthumb 7.1751 -18.7327
lclavicle -2.28105e-014 8.74653e-015
lhumerus -37.9645 30.5685 70.1941
lradius 26.4019
lwrist -9.64242
lhand -18.7899 23.0756
lfingers 7.12502
lthumb 7.50793 52.9224
rfemur 1.4652 -0.893622 2.20103
rtibia 28.5952
rfoot -9.26003 -23.1242
rtoes -4.19858
lfemur -4.21286 -2.54189 -14.2272
ltibia 11.2054
lfoot -0.941978 -3.51045
ltoes -19.5867
320
root -1.53766 17.6872 9.55586 -3.05339 -2.1544 5.65246
lowerback 12.8176 2.31846 0.341426
upperback 0.545993 3.1037 -0.346035
thorax -6.57449 1.50085 -1.12273
lowerneck -24.5429 4.98426 -7.07526
upperneck 33.5013 10.0721 1.60572
head 15.4618 3.54809 3.87725
rclavicle -3.52843e-015 -5.56597e-015
rhumerus -37.2377 -22.2707 -67.5767
rradius 29.8243
rwrist 5.12372
rhand -17.543 9.60412
rfingers 7.12502
rthumb 8.71135 -20.1961
lclavicle -3.52843e-015 -5.56597e-015
lhumerus -37.4743 30.8167 70.5301
lradius 26.3937
lwrist -9.62219
lhand -18.6376 23.3714
lfingers 7.12502
lthumb 7.65498 53.2129
rfemur 1.8785 -0.871625 1.64141
rtibia 28.4474
rfoot -8.4341 -23.6313
rtoes -2.24297
lfemur -4.86191 -1.97247 -14.9802
ltibia 12.3359
lfoot -1.38202 -4.67319
ltoes -17.7721
321
root -1.41497 17.698 9.59742 -3.09432 -1.60912 5.86494
lowerback 12.9475 2.26262 0.273155
upperback 0.645129 3.01805 -0.364561
thorax -6.54577 1.46115 -1.09142
lowerneck -24.631 4.95307 -7.18303
upperneck 33.4446 10.0657 1.63612
head 15.4464 3.53898 3.90719
rclavicle 2.48481e-016 -3.97569e-015
rhumerus -37.5111 -22.9194 -67.0703
rradius 30.1004
rwrist 5.67977
rhand -16.9326 8.48199
rfingers 7.12502
rthumb 9.3004 -21.2929
lclavicle 2.48481e-016 -3.97569e-015
lhumerus -36.9697 30.8723 70.9704
lradius 26.4512
lwrist -9.39346
lhand -18.5916 24.0412
lfingers 7.12502
lthumb 7.69939 53.8811
rfemur 2.19828 -0.723417 1.17529
rtibia 28.3651
rfoot -7.28774 -24.2769
rtoes 2.80581
lfemur -5.34808 -1.47298 -15.6924
ltibia 13.2532
lfoot -1.78629 -5.75883
ltoes -16.4499
322
root -1.29008 17.6991 9.63883 -3.16265 -1.06972 6.23349
lowerback 13.1718 2.23208 0.111203
upperback 0.673938 2.94686 -0.458801
thorax -6.64495 1.42872 -1.09605
lowerneck -24.5474 4.93634 -7.15615
upperneck 33.3087 10.0662 1.49205
head 15.3783 3.53115 3.83239
rclavicle 3.8266e-015 1.19271e-014
rhumerus -37.9706 -23.4325 -66.6582
rradius 30.2661
rwrist 5.53199
rhand -16.9501 8.35835
rfingers 7.12502
rthumb 9.28351 -21.4173
lclavicle 3.8266e-015 1.19271e-014
lhumerus -36.5951 30.8308 71.3216
lradius 26.4724
lwrist -9.07739
lhand -18.9751 24.4578
lfingers 7.12502
lthumb 7.32915 54.3108
rfemur 2.4486 -0.778183 0.46633
rtibia 28.3458
rfoot -6.11665 -24.8835
rtoes 5.7152
lfemur -5.59683 -0.939865 -16.5647
ltibia 13.9036
lfoot -2.12907 -6.89963
ltoes -14.9233
323
root -1.16648 17.7 9.68258 -3.24516 -0.681614 6.47458
lowerback 13.2688 2.23686 0.0648855
upperback 0.7472 2.94282 -0.505246
thorax -6.6211 1.42775 -1.12044
lowerneck -24.4159 4.92315 -7.24564
upperneck 33.1961 10.0816 1.44548
head 15.2942 3.53046 3.81801
rclavicle -3.23025e-015 5.56597e-015
rhumerus -38.3448 -23.7711 -66.3184
rradius 30.4114
rwrist 5.38358
rhand -16.891 8.42732
rfingers 7.12502
rthumb 9.34049 -21.3457
lclavicle -3.23025e-015 5.56597e-015
lhumerus -36.262 30.9123 71.6041
lradius 26.5775
lwrist -8.99131
lhand -19.1036 24.211
lfingers 7.12502
lthumb 7.20511 54.0684
rfemur 2.6243 -0.815952 -0.0786623
rtibia 28.3745
rfoot -5.95593 -25.6021
rtoes 9.53436
lfemur -5.65411 -0.450247 -17.2645
ltibia 14.3098
lfoot -2.5132 -7.9245
ltoes -13.8145
324
root -1.04396 17.7027 9.72605 -3.3246 -0.363314 6.59266
lowerback 13.2461 2.27127 0.137156
upperback 0.896191 2.99856 -0.517182
thorax -6.44468 1.45477 -1.17837
lowerneck -24.3741 4.87651 -7.31079
upperneck 33.1238 10.0485 1.40093
head 15.2538 3.50776 3.79854
rclavicle -1.0138e-014 4.77083e-015
rhumerus -38.5791 -24.014 -66.0487
rradius 30.5242
rwrist 5.31472
rhand -16.8397 8.54005
rfingers 7.12502
rthumb 9.38998 -21.2308
lclavicle -1.0138e-014 4.77083e-015
lhumerus -35.7804 30.7822 72.0288
lradius 26.7873
lwrist -8.91914
lhand -18.7288 24.0452
lfingers 7.12502
lthumb 7.56693 53.8899
rfemur 2.77519 -0.776805 -0.418413
rtibia 28.4414
rfoot -6.793 -26.7371
rtoes 17.4049
lfemur -5.60978 -0.117595 -17.8049
ltibia 14.5744
lfoot -2.94915 -8.7306
ltoes -12.8835
325
root -0.920048 17.7102 9.76866 -3.41503 -0.134413 6.57208
lowerback 13.3525 2.31984 0.365369
upperback 0.973023 3.09828 -0.49539
thorax -6.40961 1.49786 -1.30461
lowerneck -24.3345 4.84073 -7.32494
upperneck 33.135 10.0298 1.32685
head 15.2579 3.48762 3.76623
rclavicle 4.44284e-014 -2.94201e-014
rhumerus -38.7339 -23.9071 -66.0678
rradius 30.335
rwrist 3.81597
rhand -17.6812 9.61548
rfingers 7.12502
rthumb 8.57803 -20.1903
lclavicle 4.44284e-014 -2.94201e-014
lhumerus -35.3712 30.4161 72.5429
lradius 27.1009
lwrist -8.60501
lhand -18.7282 24.6217
lfingers 7.12502
lthumb 7.56747 54.4663
rfemur 2.90146 -0.534198 -0.543618
rtibia 28.5263
rfoot -7.20842 -27.922
rtoes 23.1294
lfemur -5.49247 0.173894 -18.193
ltibia 14.798
lfoot -3.53592 -9.41022
ltoes -13.6467
326
root -0.798555 17.7186 9.81126 -3.44892 -0.0347296 6.46015
lowerback 13.4009 2.39628 0.644693
upperback 1.05913 3.24542 -0.431791
thorax -6.33013 1.56412 -1.42116
lowerneck -24.4909 4.78246 -7.50659
upperneck 33.2471 10.0249 1.39587
head 15.3304 3.46374 3.83648
rclavicle 4.62174e-015 1.43125e-014
rhumerus -38.8232 -24.1089 -65.936
rradius 30.2552
rwrist 3.22301
rhand -17.8994 10.1406
rfingers 7.12502
rthumb 8.36743 -19.6737
lclavicle 4.62174e-015 1.43125e-014
lhumerus -34.88 29.9621 73.1865
lradius 27.4782
lwrist -8.13315
lhand -18.9483 25.147
lfingers 7.12502
lthumb 7.35508 54.9991
rfemur 2.88874 -0.199351 -0.519635
rtibia 28.6593
rfoot -6.60304 -28.8231
rtoes 25.488
lfemur -5.39002 0.413545 -18.4649
ltibia 14.9849
lfoot -3.95526 -9.93721
ltoes -14.0494
